/* XPM */
static char * default_xpm[] = {
"22 22 88 1",
" 	c #FFFFFF",
".	c #FAF3FD",
"+	c #D490F0",
"@	c #CA76ED",
"#	c #C974ED",
"$	c #D28CF0",
"%	c #ECCEF9",
"&	c #BB50E8",
"*	c #C05DEA",
"=	c #FBF4FE",
"-	c #FDFBFE",
";	c #000000",
">	c #E3B8F6",
",	c #BB51E8",
"'	c #BD56E9",
")	c #F0D9FA",
"!	c #FEFEFF",
"~	c #DCA4F3",
"{	c #D086EF",
"]	c #C364EB",
"^	c #E5BDF6",
"/	c #F2DDFA",
"(	c #BF5BE9",
"_	c #C15FEA",
":	c #F3E0FB",
"<	c #D189EF",
"[	c #D99DF2",
"}	c #CE81EE",
"|	c #BC51E8",
"1	c #DFACF4",
"2	c #DEABF4",
"3	c #CB7BED",
"4	c #E7C1F7",
"5	c #C975ED",
"6	c #EBCCF8",
"7	c #BE61E5",
"8	c #B6AEB9",
"9	c #C365EB",
"0	c #BD55E9",
"a	c #C15EEA",
"b	c #C05CEA",
"c	c #B753E2",
"d	c #FFFEFF",
"e	c #D89AF2",
"f	c #BD54E9",
"g	c #BC55E8",
"h	c #BB53E7",
"i	c #B952E4",
"j	c #B850E3",
"k	c #BA50E6",
"l	c #BB50E7",
"m	c #906C9F",
"n	c #EFD6FA",
"o	c #BE59E9",
"p	c #BF5CE8",
"q	c #D8BAE5",
"r	c #BAA1C4",
"s	c #937A9D",
"t	c #80698B",
"u	c #796083",
"v	c #A555C6",
"w	c #864E9D",
"x	c #FCF7FE",
"y	c #C872ED",
"z	c #BD65E3",
"A	c #AC7FC0",
"B	c #ADA2B1",
"C	c #B280C6",
"D	c #B660DA",
"E	c #AA52CF",
"F	c #684676",
"G	c #E7C3F7",
"H	c #BC52E8",
"I	c #B24FDC",
"J	c #605367",
"K	c #C589DE",
"L	c #A44FC8",
"M	c #F4E5FA",
"N	c #CE93E6",
"O	c #BF81DA",
"P	c #BC7DD6",
"Q	c #BB7DD4",
"R	c #AB87BA",
"S	c #DDC4E8",
"T	c #C286DC",
"U	c #BC7ED6",
"V	c #B97ED2",
"W	c #AA91B4",
"                      ",
"                      ",
"                      ",
"     .+@###$          ",
"     %&&&&&*=         ",
"     -;>*,&')  ;;;;;  ",
"      !~&{],^;;;;;;;; ",
"      /(_:<&[;;;;;;;;;",
"     -}|1!2&3;;;;;;;; ",
"     4|5. 6&78;;;;;;  ",
"    .9&0aab&c;;;;;;;  ",
"   de,fghijklm;;;;;   ",
"   nopqrstuv&w;;;;    ",
" x^y&zA;;BCD&EF;;;    ",
" GH&&&IJ;K,&&&L;;;    ",
" MNOPQR;;STUPVW;;     ",
" ;;;;;;;;;;;;;;;      ",
"                      ",
"                      ",
"                      ",
"                      ",
"                      "};
